<?xml version="1.0" standalone="no"?>
<!DOCTYPE svg PUBLIC "-//W3C//DTD SVG 20010904//EN"
 "http://www.w3.org/TR/2001/REC-SVG-20010904/DTD/svg10.dtd">
<svg version="1.0" xmlns="http://www.w3.org/2000/svg"
 width="108.000000pt" height="40.000000pt" viewBox="0 0 108.000000 40.000000"
 preserveAspectRatio="xMidYMid meet">
<metadata>
Created by potrace 1.15, written by Peter Selinger 2001-2017
</metadata>
<g transform="translate(0.000000,40.000000) scale(0.100000,-0.100000)"
fill="#000000" stroke="none">
<path d="M185 286 c-88 -35 -160 -69 -160 -76 0 -7 20 -20 44 -29 40 -14 46
-21 61 -65 19 -57 29 -64 55 -36 23 26 31 25 72 -6 57 -43 65 -34 95 106 33
152 34 170 11 169 -10 0 -90 -29 -178 -63z"/>
<path d="M430 288 c0 -8 11 -45 23 -84 23 -67 25 -69 57 -69 32 0 34 2 57 69
30 90 29 96 -7 96 -19 0 -30 -5 -30 -14 0 -8 -5 -27 -11 -43 l-11 -28 -12 40
c-9 33 -17 41 -39 43 -18 2 -27 -1 -27 -10z"/>
<path d="M600 215 l0 -85 30 0 c24 0 30 4 31 23 l0 22 16 -22 c10 -15 26 -23
45 -23 l30 0 -20 32 c-16 24 -18 36 -10 54 15 32 3 70 -24 78 -13 3 -40 6 -60
6 l-38 0 0 -85z"/>
<path d="M775 275 c-48 -47 -27 -136 35 -150 43 -10 70 2 70 30 0 22 -3 24
-29 19 -23 -5 -32 -2 -40 15 -17 31 3 64 35 58 30 -5 56 29 33 44 -28 17 -79
10 -104 -16z"/>
<path d="M925 275 c-48 -47 -27 -136 35 -150 43 -10 70 2 70 30 0 22 -3 24
-29 19 -23 -5 -32 -2 -40 15 -17 31 3 64 35 58 30 -5 56 29 33 44 -28 17 -79
10 -104 -16z"/>
</g>
</svg>
